<mxfile host="app.diagrams.net" agent="Mozilla/5.0 (Windows NT 10.0; Win64; x64) AppleWebKit/537.36 (KHTML, like Gecko) Chrome/129.0.0.0 Safari/537.36" version="24.7.7" pages="2">
  <diagram name="Use Case Diagram" id="Wv8_qem3lOpt7JSuxMAI">
    <mxGraphModel dx="1433" dy="619" grid="1" gridSize="10" guides="1" tooltips="1" connect="1" arrows="1" fold="1" page="1" pageScale="1" pageWidth="827" pageHeight="1169" math="0" shadow="0">
      <root>
        <mxCell id="0" />
        <mxCell id="1" parent="0" />
        <mxCell id="AhwB_3igZIoxtrPz2ofX-1" value="Admin" style="shape=umlActor;verticalLabelPosition=bottom;verticalAlign=top;html=1;outlineConnect=0;" vertex="1" parent="1">
          <mxGeometry x="40" y="140" width="30" height="60" as="geometry" />
        </mxCell>
        <mxCell id="AhwB_3igZIoxtrPz2ofX-2" value="Seller" style="shape=umlActor;verticalLabelPosition=bottom;verticalAlign=top;html=1;outlineConnect=0;" vertex="1" parent="1">
          <mxGeometry x="40" y="300" width="30" height="60" as="geometry" />
        </mxCell>
        <mxCell id="AhwB_3igZIoxtrPz2ofX-3" value="Buyer" style="shape=umlActor;verticalLabelPosition=bottom;verticalAlign=top;html=1;outlineConnect=0;" vertex="1" parent="1">
          <mxGeometry x="760" y="180" width="30" height="60" as="geometry" />
        </mxCell>
        <mxCell id="AhwB_3igZIoxtrPz2ofX-4" value="Payment" style="shape=umlActor;verticalLabelPosition=bottom;verticalAlign=top;html=1;outlineConnect=0;" vertex="1" parent="1">
          <mxGeometry x="770" y="355" width="30" height="60" as="geometry" />
        </mxCell>
        <mxCell id="AhwB_3igZIoxtrPz2ofX-5" value="" style="rounded=0;whiteSpace=wrap;html=1;" vertex="1" parent="1">
          <mxGeometry x="140" y="40" width="540" height="420" as="geometry" />
        </mxCell>
        <mxCell id="AhwB_3igZIoxtrPz2ofX-6" value="Quản lý tài khoản" style="ellipse;whiteSpace=wrap;html=1;" vertex="1" parent="1">
          <mxGeometry x="210" y="135" width="120" height="40" as="geometry" />
        </mxCell>
        <mxCell id="AhwB_3igZIoxtrPz2ofX-7" value="Quản lý doanh thu" style="ellipse;whiteSpace=wrap;html=1;" vertex="1" parent="1">
          <mxGeometry x="210" y="200" width="120" height="50" as="geometry" />
        </mxCell>
        <mxCell id="AhwB_3igZIoxtrPz2ofX-8" value="Quản lý sản phẩm" style="ellipse;whiteSpace=wrap;html=1;" vertex="1" parent="1">
          <mxGeometry x="210" y="290" width="120" height="40" as="geometry" />
        </mxCell>
        <mxCell id="AhwB_3igZIoxtrPz2ofX-9" value="Quản lý bài viết" style="ellipse;whiteSpace=wrap;html=1;" vertex="1" parent="1">
          <mxGeometry x="210" y="370" width="120" height="40" as="geometry" />
        </mxCell>
        <mxCell id="AhwB_3igZIoxtrPz2ofX-11" style="rounded=0;orthogonalLoop=1;jettySize=auto;html=1;entryX=0;entryY=0.5;entryDx=0;entryDy=0;" edge="1" parent="1" source="AhwB_3igZIoxtrPz2ofX-1" target="AhwB_3igZIoxtrPz2ofX-6">
          <mxGeometry relative="1" as="geometry" />
        </mxCell>
        <mxCell id="AhwB_3igZIoxtrPz2ofX-12" style="rounded=0;orthogonalLoop=1;jettySize=auto;html=1;entryX=0;entryY=0.5;entryDx=0;entryDy=0;" edge="1" parent="1" source="AhwB_3igZIoxtrPz2ofX-1" target="AhwB_3igZIoxtrPz2ofX-7">
          <mxGeometry relative="1" as="geometry" />
        </mxCell>
        <mxCell id="AhwB_3igZIoxtrPz2ofX-13" style="rounded=0;orthogonalLoop=1;jettySize=auto;html=1;entryX=0;entryY=0;entryDx=0;entryDy=0;" edge="1" parent="1" source="AhwB_3igZIoxtrPz2ofX-1" target="AhwB_3igZIoxtrPz2ofX-8">
          <mxGeometry relative="1" as="geometry" />
        </mxCell>
        <mxCell id="AhwB_3igZIoxtrPz2ofX-15" style="rounded=0;orthogonalLoop=1;jettySize=auto;html=1;entryX=0;entryY=0;entryDx=0;entryDy=0;" edge="1" parent="1" source="AhwB_3igZIoxtrPz2ofX-1" target="AhwB_3igZIoxtrPz2ofX-9">
          <mxGeometry relative="1" as="geometry" />
        </mxCell>
        <mxCell id="AhwB_3igZIoxtrPz2ofX-16" style="rounded=0;orthogonalLoop=1;jettySize=auto;html=1;entryX=0;entryY=0.5;entryDx=0;entryDy=0;" edge="1" parent="1" source="AhwB_3igZIoxtrPz2ofX-2" target="AhwB_3igZIoxtrPz2ofX-8">
          <mxGeometry relative="1" as="geometry" />
        </mxCell>
        <mxCell id="AhwB_3igZIoxtrPz2ofX-17" style="rounded=0;orthogonalLoop=1;jettySize=auto;html=1;entryX=0;entryY=0.5;entryDx=0;entryDy=0;" edge="1" parent="1" source="AhwB_3igZIoxtrPz2ofX-2" target="AhwB_3igZIoxtrPz2ofX-9">
          <mxGeometry relative="1" as="geometry" />
        </mxCell>
        <mxCell id="AhwB_3igZIoxtrPz2ofX-18" value="Quản lý khiếu nại" style="ellipse;whiteSpace=wrap;html=1;" vertex="1" parent="1">
          <mxGeometry x="210" y="70" width="120" height="40" as="geometry" />
        </mxCell>
        <mxCell id="AhwB_3igZIoxtrPz2ofX-19" style="rounded=0;orthogonalLoop=1;jettySize=auto;html=1;entryX=0;entryY=0.5;entryDx=0;entryDy=0;" edge="1" parent="1" source="AhwB_3igZIoxtrPz2ofX-1" target="AhwB_3igZIoxtrPz2ofX-18">
          <mxGeometry relative="1" as="geometry" />
        </mxCell>
        <mxCell id="AhwB_3igZIoxtrPz2ofX-20" value="Tìm kiếm sản phẩm" style="ellipse;whiteSpace=wrap;html=1;" vertex="1" parent="1">
          <mxGeometry x="470" y="60" width="120" height="50" as="geometry" />
        </mxCell>
        <mxCell id="AhwB_3igZIoxtrPz2ofX-21" value="Thêm vào giỏ hàng" style="ellipse;whiteSpace=wrap;html=1;" vertex="1" parent="1">
          <mxGeometry x="470" y="130" width="120" height="50" as="geometry" />
        </mxCell>
        <mxCell id="AhwB_3igZIoxtrPz2ofX-22" value="Thanh toán" style="ellipse;whiteSpace=wrap;html=1;" vertex="1" parent="1">
          <mxGeometry x="470" y="360" width="120" height="50" as="geometry" />
        </mxCell>
        <mxCell id="AhwB_3igZIoxtrPz2ofX-24" value="Khiếu nại" style="ellipse;whiteSpace=wrap;html=1;" vertex="1" parent="1">
          <mxGeometry x="470" y="210" width="120" height="50" as="geometry" />
        </mxCell>
        <mxCell id="AhwB_3igZIoxtrPz2ofX-26" value="Đánh giá sản phẩm" style="ellipse;whiteSpace=wrap;html=1;" vertex="1" parent="1">
          <mxGeometry x="470" y="280" width="120" height="50" as="geometry" />
        </mxCell>
        <mxCell id="AhwB_3igZIoxtrPz2ofX-28" style="rounded=0;orthogonalLoop=1;jettySize=auto;html=1;entryX=1;entryY=0.5;entryDx=0;entryDy=0;" edge="1" parent="1" source="AhwB_3igZIoxtrPz2ofX-4" target="AhwB_3igZIoxtrPz2ofX-22">
          <mxGeometry relative="1" as="geometry" />
        </mxCell>
        <mxCell id="AhwB_3igZIoxtrPz2ofX-31" style="rounded=0;orthogonalLoop=1;jettySize=auto;html=1;entryX=1;entryY=0.5;entryDx=0;entryDy=0;" edge="1" parent="1" source="AhwB_3igZIoxtrPz2ofX-3" target="AhwB_3igZIoxtrPz2ofX-20">
          <mxGeometry relative="1" as="geometry" />
        </mxCell>
        <mxCell id="AhwB_3igZIoxtrPz2ofX-32" style="rounded=0;orthogonalLoop=1;jettySize=auto;html=1;" edge="1" parent="1" source="AhwB_3igZIoxtrPz2ofX-3" target="AhwB_3igZIoxtrPz2ofX-21">
          <mxGeometry relative="1" as="geometry" />
        </mxCell>
        <mxCell id="AhwB_3igZIoxtrPz2ofX-33" style="rounded=0;orthogonalLoop=1;jettySize=auto;html=1;entryX=1;entryY=0.5;entryDx=0;entryDy=0;" edge="1" parent="1" source="AhwB_3igZIoxtrPz2ofX-3" target="AhwB_3igZIoxtrPz2ofX-24">
          <mxGeometry relative="1" as="geometry" />
        </mxCell>
        <mxCell id="AhwB_3igZIoxtrPz2ofX-34" style="rounded=0;orthogonalLoop=1;jettySize=auto;html=1;entryX=1;entryY=0.5;entryDx=0;entryDy=0;" edge="1" parent="1" source="AhwB_3igZIoxtrPz2ofX-3" target="AhwB_3igZIoxtrPz2ofX-26">
          <mxGeometry relative="1" as="geometry" />
        </mxCell>
        <mxCell id="2Y00x3LuaVZOZ4oOX0XC-1" style="rounded=0;orthogonalLoop=1;jettySize=auto;html=1;entryX=1;entryY=0;entryDx=0;entryDy=0;" edge="1" parent="1" source="AhwB_3igZIoxtrPz2ofX-3" target="AhwB_3igZIoxtrPz2ofX-22">
          <mxGeometry relative="1" as="geometry" />
        </mxCell>
      </root>
    </mxGraphModel>
  </diagram>
  <diagram id="CAZquAlv1gErgeTsqZiD" name="Manage Account Activity">
    <mxGraphModel grid="1" page="1" gridSize="10" guides="1" tooltips="1" connect="1" arrows="1" fold="1" pageScale="1" pageWidth="827" pageHeight="1169" math="0" shadow="0">
      <root>
        <mxCell id="0" />
        <mxCell id="1" parent="0" />
        <mxCell id="Mcc7Ovw3KyG-azoEAN7O-22" value="Admin    " style="swimlane;whiteSpace=wrap" vertex="1" parent="1">
          <mxGeometry x="40" y="160" width="300" height="600" as="geometry" />
        </mxCell>
        <mxCell id="Mcc7Ovw3KyG-azoEAN7O-25" value="Seller" style="swimlane;whiteSpace=wrap" vertex="1" parent="1">
          <mxGeometry x="640" y="160" width="300" height="600" as="geometry" />
        </mxCell>
        <mxCell id="Mcc7Ovw3KyG-azoEAN7O-26" value="Hệ thống" style="swimlane;whiteSpace=wrap" vertex="1" parent="1">
          <mxGeometry x="340" y="160" width="300" height="600" as="geometry" />
        </mxCell>
        <mxCell id="Mcc7Ovw3KyG-azoEAN7O-9" value="" style="ellipse;html=1;shape=startState;strokeColor=#000000;fillColor=#000000;" vertex="1" parent="Mcc7Ovw3KyG-azoEAN7O-26">
          <mxGeometry x="130" y="30" width="30" height="30" as="geometry" />
        </mxCell>
        <mxCell id="Mcc7Ovw3KyG-azoEAN7O-27" value="" style="rounded=1;whiteSpace=wrap;html=1;" vertex="1" parent="Mcc7Ovw3KyG-azoEAN7O-26">
          <mxGeometry x="90" y="120" width="120" height="60" as="geometry" />
        </mxCell>
      </root>
    </mxGraphModel>
  </diagram>
</mxfile>
